# xmcd
# Track frame offsets:
# 150
# 27148
# 44041
# 62784
# 93390
# 115501
# 136250
# 157550
# 178853
# 206878
# 223831
# 244312
# 271109
#
# Disc length: 3911 seconds
# Revision: 0
# Processed by: cddbd v1.5.2PL0 Copyright (c) Steve Scherf et al.
# Submitted via: VisiTrax 2.10.0.248 - For more info visit www.synapsa.com
#
DISCID=b80f450d
DTITLE=Harmonica Red - I Was Born In Louisana
DYEAR=2007
DGENRE=Blues
TTITLE0=I Was Born In Louisana
TTITLE1=Comin' Home Baby
TTITLE2=We're Goin' To A Zydeco Party
TTITLE3=A Room With A View
TTITLE4=I Got Love If You Want It
TTITLE5=Watermelon Man
TTITLE6=I Yi Yi
TTITLE7=I Got Happiness
TTITLE8=Mercy, Mercy, Mercy
TTITLE9=Mathilda
TTITLE10=New Suit
TTITLE11=No (More) Free Rides
TTITLE12=Black Cloud
EXTD=
EXTT0=
EXTT1=
EXTT2=
EXTT3=
EXTT4=
EXTT5=
EXTT6=
EXTT7=
EXTT8=
EXTT9=
EXTT10=
EXTT11=
EXTT12=
PLAYORDER=
